<svg width="32" height="32" viewBox="0 0 32 32" fill="none" xmlns="http://www.w3.org/2000/svg">
<path d="M12 19.5C12.8284 19.5 13.5 18.8284 13.5 18C13.5 17.1716 12.8284 16.5 12 16.5C11.1716 16.5 10.5 17.1716 10.5 18C10.5 18.8284 11.1716 19.5 12 19.5Z" fill="#858584"/>
<path d="M20 19.5C20.8284 19.5 21.5 18.8284 21.5 18C21.5 17.1716 20.8284 16.5 20 16.5C19.1716 16.5 18.5 17.1716 18.5 18C18.5 18.8284 19.1716 19.5 20 19.5Z" fill="#858584"/>
<path fill-rule="evenodd" clip-rule="evenodd" d="M15.9917 9.99959C13.8239 9.98356 11.6668 10.3055 9.59816 10.9539C9.07115 11.119 8.51003 10.8257 8.34486 10.2987C8.17969 9.77168 8.47302 9.21056 9.00003 9.04539C11.2646 8.33563 13.6259 7.98281 15.9991 7.99959C18.3722 7.98281 20.7335 8.33563 22.9982 9.04539C23.5252 9.21056 23.8185 9.77168 23.6533 10.2987C23.4882 10.8257 22.927 11.119 22.4 10.9539C20.3314 10.3055 18.1743 9.98356 16.0065 9.99959H15.9917Z" fill="#858584"/>
<path fill-rule="evenodd" clip-rule="evenodd" d="M8.34486 21.7012C8.51003 21.1742 9.07115 20.8809 9.59816 21.046C11.6668 21.6944 13.8239 22.0163 15.9917 22.0003H16.0065C18.1743 22.0163 20.3314 21.6944 22.4 21.046C22.927 20.8809 23.4882 21.1742 23.6533 21.7012C23.8185 22.2282 23.5252 22.7893 22.9982 22.9545C20.7335 23.6643 18.3722 24.0171 15.9991 24.0003C13.6259 24.0171 11.2646 23.6643 9.00003 22.9545C8.47302 22.7893 8.17969 22.2282 8.34486 21.7012Z" fill="#858584"/>
<path fill-rule="evenodd" clip-rule="evenodd" d="M20.2195 4.81121C20.6499 4.56852 21.1546 4.49267 21.6373 4.59812C22.9549 4.88366 24.2448 5.28424 25.4924 5.79524C25.7732 5.90352 26.0254 6.07496 26.2294 6.29638C26.4357 6.52018 26.587 6.78885 26.6715 7.08115L30.9074 21.2255C31.0178 21.594 31.0204 21.9865 30.9147 22.3563C30.809 22.7262 30.5995 23.0581 30.3111 23.3126L30.3059 23.3171C28.2385 25.1161 25.4371 26.4777 22.2551 27.2577C21.8132 27.3703 21.3457 27.3265 20.9322 27.1336C20.5205 26.9414 20.1877 26.6132 19.9898 26.2044L18.4816 23.2129C18.2329 22.7197 18.4311 22.1184 18.9243 21.8698C19.4175 21.6211 20.0188 21.8194 20.2674 22.3125L21.7799 25.3125L21.781 25.3147C24.7189 24.5943 27.2131 23.3571 28.9931 21.8083L29.6495 22.5627L28.9879 21.8128C28.9897 21.8113 28.991 21.8092 28.9917 21.8069C28.9923 21.8046 28.9923 21.8022 28.9916 21.7999L24.7555 7.65465C24.752 7.65325 24.7485 7.65182 24.7449 7.65037C23.602 7.18149 22.4201 6.81412 21.2127 6.55253L21.2106 6.55205C21.2076 6.55139 21.2044 6.55186 21.2017 6.55337C21.1993 6.55473 21.1975 6.55684 21.1964 6.55937L20.2115 9.53905C20.0381 10.0634 19.4725 10.348 18.9481 10.1747C18.4238 10.0013 18.1392 9.43574 18.3125 8.91136L19.3029 5.91516C19.4624 5.44707 19.7887 5.0541 20.2195 4.81121Z" fill="#858584"/>
<path fill-rule="evenodd" clip-rule="evenodd" d="M10.7982 6.55337C10.7955 6.55186 10.7924 6.55139 10.7894 6.55205L10.7872 6.55252C9.57988 6.81412 8.39792 7.18148 7.25502 7.65037C7.25149 7.65182 7.24795 7.65324 7.24441 7.65465L3.00842 21.7996C3.00774 21.8019 3.00764 21.8046 3.00829 21.8069C3.00888 21.809 3.01 21.8108 3.01152 21.8123C4.79121 23.3593 7.2836 24.5949 10.2189 25.3147L10.22 25.3125L11.7325 22.3125C11.9812 21.8194 12.5825 21.6211 13.0756 21.8698C13.5688 22.1184 13.767 22.7197 13.5184 23.2129L12.0101 26.2045C11.8123 26.6132 11.4795 26.9414 11.0677 27.1336C10.6542 27.3265 10.1868 27.3703 9.74481 27.2577C6.56287 26.4777 3.76151 25.1161 1.69404 23.3171L1.68886 23.3126C1.40039 23.0581 1.19093 22.7262 1.08525 22.3563C0.979591 21.9865 0.982107 21.5942 1.09249 21.2258C1.09252 21.2257 1.09246 21.2259 1.09249 21.2258L5.32839 7.08117C5.41291 6.78887 5.56426 6.52019 5.77051 6.29638C5.97457 6.07496 6.22679 5.90352 6.5076 5.79524C7.75546 5.28409 9.04577 4.88344 10.3637 4.59788C10.8461 4.49279 11.3504 4.5687 11.7805 4.81121C12.2113 5.05409 12.5375 5.44708 12.697 5.91518L12.7 5.92385L13.6874 8.91136C13.8608 9.43574 13.5762 10.0013 13.0518 10.1747C12.5274 10.348 11.9618 10.0634 11.7885 9.53905L10.8036 6.55937C10.8025 6.55684 10.8006 6.55473 10.7982 6.55337Z" fill="#858584"/>
<path d="M12 19.5C12.8284 19.5 13.5 18.8284 13.5 18C13.5 17.1716 12.8284 16.5 12 16.5C11.1716 16.5 10.5 17.1716 10.5 18C10.5 18.8284 11.1716 19.5 12 19.5Z" fill="#858584"/>
<path d="M20 19.5C20.8284 19.5 21.5 18.8284 21.5 18C21.5 17.1716 20.8284 16.5 20 16.5C19.1716 16.5 18.5 17.1716 18.5 18C18.5 18.8284 19.1716 19.5 20 19.5Z" fill="#858584"/>
<path fill-rule="evenodd" clip-rule="evenodd" d="M15.9917 9.99959C13.8239 9.98356 11.6668 10.3055 9.59816 10.9539C9.07115 11.119 8.51003 10.8257 8.34486 10.2987C8.17969 9.77168 8.47302 9.21056 9.00003 9.04539C11.2646 8.33563 13.6259 7.98281 15.9991 7.99959C18.3722 7.98281 20.7335 8.33563 22.9982 9.04539C23.5252 9.21056 23.8185 9.77168 23.6533 10.2987C23.4882 10.8257 22.927 11.119 22.4 10.9539C20.3314 10.3055 18.1743 9.98356 16.0065 9.99959H15.9917Z" fill="#858584"/>
<path fill-rule="evenodd" clip-rule="evenodd" d="M8.34486 21.7012C8.51003 21.1742 9.07115 20.8809 9.59816 21.046C11.6668 21.6944 13.8239 22.0163 15.9917 22.0003H16.0065C18.1743 22.0163 20.3314 21.6944 22.4 21.046C22.927 20.8809 23.4882 21.1742 23.6533 21.7012C23.8185 22.2282 23.5252 22.7893 22.9982 22.9545C20.7335 23.6643 18.3722 24.0171 15.9991 24.0003C13.6259 24.0171 11.2646 23.6643 9.00003 22.9545C8.47302 22.7893 8.17969 22.2282 8.34486 21.7012Z" fill="#858584"/>
<path fill-rule="evenodd" clip-rule="evenodd" d="M20.2195 4.81121C20.6499 4.56852 21.1546 4.49267 21.6373 4.59812C22.9549 4.88366 24.2448 5.28424 25.4924 5.79524C25.7732 5.90352 26.0254 6.07496 26.2294 6.29638C26.4357 6.52018 26.587 6.78885 26.6715 7.08115L30.9074 21.2255C31.0178 21.594 31.0204 21.9865 30.9147 22.3563C30.809 22.7262 30.5995 23.0581 30.3111 23.3126L30.3059 23.3171C28.2385 25.1161 25.4371 26.4777 22.2551 27.2577C21.8132 27.3703 21.3457 27.3265 20.9322 27.1336C20.5205 26.9414 20.1877 26.6132 19.9898 26.2044L18.4816 23.2129C18.2329 22.7197 18.4311 22.1184 18.9243 21.8698C19.4175 21.6211 20.0188 21.8194 20.2674 22.3125L21.7799 25.3125L21.781 25.3147C24.7189 24.5943 27.2131 23.3571 28.9931 21.8083L29.6495 22.5627L28.9879 21.8128C28.9897 21.8113 28.991 21.8092 28.9917 21.8069C28.9923 21.8046 28.9923 21.8022 28.9916 21.7999L24.7555 7.65465C24.752 7.65325 24.7485 7.65182 24.7449 7.65037C23.602 7.18149 22.4201 6.81412 21.2127 6.55253L21.2106 6.55205C21.2076 6.55139 21.2044 6.55186 21.2017 6.55337C21.1993 6.55473 21.1975 6.55684 21.1964 6.55937L20.2115 9.53905C20.0381 10.0634 19.4725 10.348 18.9481 10.1747C18.4238 10.0013 18.1392 9.43574 18.3125 8.91136L19.3029 5.91516C19.4624 5.44707 19.7887 5.0541 20.2195 4.81121Z" fill="#858584"/>
<path fill-rule="evenodd" clip-rule="evenodd" d="M10.7982 6.55337C10.7955 6.55186 10.7924 6.55139 10.7894 6.55205L10.7872 6.55252C9.57988 6.81412 8.39792 7.18148 7.25502 7.65037C7.25149 7.65182 7.24795 7.65324 7.24441 7.65465L3.00842 21.7996C3.00774 21.8019 3.00764 21.8046 3.00829 21.8069C3.00888 21.809 3.01 21.8108 3.01152 21.8123C4.79121 23.3593 7.2836 24.5949 10.2189 25.3147L10.22 25.3125L11.7325 22.3125C11.9812 21.8194 12.5825 21.6211 13.0756 21.8698C13.5688 22.1184 13.767 22.7197 13.5184 23.2129L12.0101 26.2045C11.8123 26.6132 11.4795 26.9414 11.0677 27.1336C10.6542 27.3265 10.1868 27.3703 9.74481 27.2577C6.56287 26.4777 3.76151 25.1161 1.69404 23.3171L1.68886 23.3126C1.40039 23.0581 1.19093 22.7262 1.08525 22.3563C0.979591 21.9865 0.982107 21.5942 1.09249 21.2258C1.09252 21.2257 1.09246 21.2259 1.09249 21.2258L5.32839 7.08117C5.41291 6.78887 5.56426 6.52019 5.77051 6.29638C5.97457 6.07496 6.22679 5.90352 6.5076 5.79524C7.75546 5.28409 9.04577 4.88344 10.3637 4.59788C10.8461 4.49279 11.3504 4.5687 11.7805 4.81121C12.2113 5.05409 12.5375 5.44708 12.697 5.91518L12.7 5.92385L13.6874 8.91136C13.8608 9.43574 13.5762 10.0013 13.0518 10.1747C12.5274 10.348 11.9618 10.0634 11.7885 9.53905L10.8036 6.55937C10.8025 6.55684 10.8006 6.55473 10.7982 6.55337Z" fill="#858584"/>
</svg>
